<svg width="104" height="104" viewBox="0 0 104 104" fill="none" xmlns="http://www.w3.org/2000/svg">
<path d="M34.0049 17.3846C38.5355 16.7937 45.6244 13.8388 52 13.8388C58.3756 13.8388 65.4645 16.7937 69.9951 17.3846C74.1182 17.9225 80.9012 0.246323 86.8996 2.01925C92.8979 3.79218 98.351 20.3395 97.8057 30.9771C97.2604 41.6147 100.532 41.0237 101.623 49.8883C102.713 58.753 104.895 101.894 52 101.894C-0.894639 101.894 1.28658 58.753 2.37719 49.8883C3.46781 41.0237 6.73964 41.6147 6.19433 30.9771C5.64903 20.3395 11.1021 3.79218 17.1004 2.01925C23.0988 0.246324 29.8818 17.9225 34.0049 17.3846Z" fill="black" stroke="black" stroke-width="3" stroke-linejoin="round"/>
</svg>
